<svg width="63" height="63" viewBox="0 0 63 63" fill="none" xmlns="http://www.w3.org/2000/svg">
<path d="M0.174601 40.4114C7.56294 44.1401 18.3692 42.4119 24.1239 40.7337C24.4679 40.6333 24.7892 41.1478 24.5716 41.4325C20.6607 46.5486 20.3719 56.9967 20.7754 62.1407C20.7865 62.2819 20.8865 62.3991 21.0281 62.4024C24.0639 62.4736 31.3651 51.2864 34.9273 45.1882C35.0398 44.9957 35.3063 44.9729 35.4576 45.1366C42.3633 52.6129 48.5273 56.1999 51.0317 57.1821C51.1826 57.2413 51.3521 57.1771 51.4167 57.0283C53.1532 53.0265 47.6147 43.8601 44.081 39.0067C43.8934 38.749 44.1459 38.3962 44.4522 38.4845C55.7835 41.7483 61.2648 41.1051 62.7739 40.2883C62.8659 40.2385 62.9209 40.1424 62.9177 40.0378C62.8003 36.1546 52.1454 31.1195 46.1424 28.8121C45.8736 28.7087 45.8582 28.3328 46.1144 28.2012C55.2387 23.5121 59.8324 19.1288 61.2028 17.2482C61.3076 17.1044 61.268 16.9068 61.1077 16.8295C57.7384 15.205 44.929 18.8451 37.961 21.1948C37.6585 21.2968 37.394 20.945 37.5607 20.6728C41.6756 13.9519 41.3944 4.51158 40.6706 0.241963C40.6447 0.0892876 40.5139 -0.023092 40.3615 0.00408482C37.3805 0.535437 33.1038 11.4525 31.1049 17.5442C31.0204 17.8018 30.6743 17.8491 30.5151 17.6296C22.4355 6.48726 17.4077 3.88289 15.7608 3.964C15.6853 3.96772 15.6182 4.00292 15.571 4.06203C13.2989 6.90775 19.4552 19.5061 23.0296 25.8339C23.131 26.0134 23.0388 26.2383 22.8444 26.3069C8.22967 31.4649 1.70218 37.3724 0.0477035 39.9727C-0.0509952 40.1278 0.0104591 40.3285 0.174601 40.4114Z" fill="#FFD731"/>
</svg>
