<svg width="45" height="45" viewBox="0 0 45 45" fill="none" xmlns="http://www.w3.org/2000/svg">
<path d="M14.6629 43.6718C7.81601 41.7156 13.9836 31.1736 17.9233 26.1471L21.592 25.332C22.1351 32.2604 21.5097 45.628 14.6629 43.6718Z" fill="white" stroke="black" stroke-width="1.75639"/>
<path d="M30.5715 43.3727C23.0725 43.3727 22.2846 32.5047 22.828 27.0706L25.445 24.9244C30.6072 30.9018 38.0704 43.3727 30.5715 43.3727Z" fill="white"/>
<path d="M41.9831 29.9235C38.0706 33.836 29.5205 28.0489 25.8525 24.5168C25.3848 23.9556 25.0162 22.8661 25.6834 22.2419C25.5999 21.853 25.5198 21.3723 25.445 20.7846C25.3221 19.8191 25.545 18.7872 26.0202 17.7553C25.6202 18.3154 25.2321 18.843 24.866 19.3272L22.2024 19.7077C22.1219 19.7893 22.0188 19.8582 21.8947 19.9132C21.7019 20.4187 21.3383 21.1407 20.7615 22.1279L21.1975 22.5873C21.052 22.5695 20.8148 22.5481 20.527 22.5243C20.0402 23.3374 19.4241 24.3114 18.6593 25.4683C11.9783 35.5756 4.5366 35.8578 3.33782 34.0269C-1.69205 26.3446 9.60904 22.8888 17.4886 22.2483C10.6055 21.1303 -1.17433 17.722 1.18669 12.7042C3.67368 7.41866 12.8453 13.7706 17.4615 18.6284C13.0148 13.1673 13.0983 -0.47531 17.1225 0.98803C20.709 2.29219 21.9941 13.2141 22.1884 18.5121C23.1993 12.0119 26.0847 1.19071 30.9792 1.80252C35.0136 2.30682 31.6703 9.1813 27.9998 14.8477C30.9709 11.5456 35.828 8.98307 38.8941 9.78077C47.8244 12.1041 35.734 19.1073 28.9415 21.8502C31.4984 22.0634 34.7315 22.6639 36.2774 22.9951C39.8095 23.6744 45.8956 26.011 41.9831 29.9235Z" fill="white"/>
<path d="M27.3113 21.7725C24.703 21.7725 25.1733 23.7017 25.8525 24.5168C29.5205 28.0489 38.0706 33.836 41.9831 29.9235C45.8956 26.011 39.8095 23.6744 36.2774 22.9951C34.7315 22.6639 31.4984 22.0634 28.9415 21.8502M27.3113 21.7725C27.7996 21.7725 28.3526 21.8011 28.9415 21.8502M27.3113 21.7725C27.1782 22.8423 26.1037 25.9605 25.445 20.7846C24.7863 15.6087 34.0632 8.52394 38.8941 9.78077C47.8244 12.1041 35.734 19.1073 28.9415 21.8502M22.1884 18.5121C23.1993 12.0119 26.0847 1.19071 30.9792 1.80252C36.1959 2.45461 29.0773 13.7573 24.866 19.3272L22.0131 19.7347C22.0634 19.3489 22.1219 18.9399 22.1884 18.5121ZM22.1884 18.5121C21.9941 13.2141 20.709 2.29219 17.1225 0.98803C12.6395 -0.642171 13.047 16.4749 19.1603 20.1429C19.7962 20.5245 17.6488 19.1246 18.1033 19.3272M22.1884 18.5121C23.083 20.0487 21.144 20.6823 18.1033 19.3272M18.1033 19.3272C13.7561 14.4181 3.79501 7.1608 1.18669 12.7042C-1.17433 17.722 10.6055 21.1303 17.4886 22.2483M18.1033 19.3272L21.1975 22.5873C20.5664 22.5101 18.2095 22.3654 17.4886 22.2483M17.4886 22.2483C9.60904 22.8888 -1.69205 26.3446 3.33782 34.0269C4.5366 35.8578 11.9783 35.5756 18.6593 25.4683C25.3404 15.3611 20.6797 19.2209 17.4886 22.2483ZM22.828 27.0706C22.2846 32.5047 23.0725 43.3727 30.5715 43.3727C38.0704 43.3727 30.6072 30.9018 25.445 24.9244L22.828 27.0706Z" stroke="black" stroke-width="1.75639"/>
<circle cx="22.0006" cy="22.0729" r="4.82751" fill="#FFCC00" stroke="black" stroke-width="1.75639"/>
</svg>
