<svg width="279" height="248" viewBox="0 0 279 248" fill="none" xmlns="http://www.w3.org/2000/svg">
<path d="M51.1058 1.41041C48.7876 37.8494 75.5798 78.7535 91.9928 98.0052C92.6977 98.8321 91.699 100.271 90.658 99.9596C63.8681 91.9503 20.501 109.407 0.618392 120.016C0.239424 120.219 0.0379134 120.629 0.17578 121.036C4.32991 133.294 62.0876 143.046 92.2158 146.603C92.8873 146.683 93.2644 147.397 92.9906 148.016C75.024 188.589 71.5344 219.364 72.0412 230.65C72.0632 231.142 72.444 231.529 72.9355 231.541C91.9502 232.016 119.34 193.008 132.21 170.86C132.696 170.024 133.978 170.315 134.1 171.274C140.652 222.779 152.862 243.421 158.629 247.717C158.883 247.906 159.209 247.938 159.499 247.81C174.906 240.974 176.375 189.112 175.109 161.698C175.069 160.826 176.099 160.333 176.774 160.888C211.604 189.554 237.175 200.161 246.686 202.152C247.214 202.263 247.719 201.929 247.763 201.391C249.063 185.528 211.449 139.868 190.272 116.561C189.621 115.845 190.268 114.685 191.224 114.835C225.194 120.177 262.776 102.407 278.345 92.1717C278.737 91.9138 278.888 91.4252 278.651 91.0194C272.108 79.7831 220.304 81.7816 192.919 84.3913C192.1 84.4693 191.566 83.5582 191.985 82.8509C222.59 31.2296 224.074 6.84975 220.838 0.700294C220.732 0.497258 220.556 0.358412 220.336 0.293784C205.298 -4.12117 165.787 42.3012 147.087 67.1345C146.711 67.6339 145.977 67.6433 145.552 67.1851C99.6746 17.7559 64.9252 2.31488 52.1748 0.51833C51.6227 0.440535 51.1412 0.853957 51.1058 1.41041Z" fill="#1FC5D8"/>
<path d="M57.2734 155H46.2969V123.555L39.8906 155H31.4141L24.0703 123.555V155H14.4609V98.9844H30.2812L35.9062 128.047L40.7891 98.9844H57.2734V155ZM59.9297 145.43V109.375C59.9297 102.109 64.6432 98.4766 74.0703 98.4766C83.3672 98.4766 88.0156 102.083 88.0156 109.297V145.352C88.0156 148.607 86.7135 151.12 84.1094 152.891C81.5312 154.635 78.1589 155.508 73.9922 155.508C64.6172 155.508 59.9297 152.148 59.9297 145.43ZM75.9844 146.016V107.852C75.9844 106.732 75.3203 106.172 73.9922 106.172C72.612 106.172 71.9219 106.732 71.9219 107.852V146.016C71.9219 147.135 72.612 147.695 73.9922 147.695C75.3203 147.695 75.9844 147.135 75.9844 146.016ZM120.984 155.078H108.68C107.352 153.49 106.688 148.984 106.688 141.562V141.484L106.766 138.125C106.844 133.464 106.883 131.081 106.883 130.977C106.883 129.076 105.607 128.125 103.055 128.125V155H90.75V98.9844H105.945C109.409 98.9844 112.417 99.7786 114.969 101.367C117.547 102.956 118.836 105.469 118.836 108.906V115.625C118.836 119.974 116.297 122.917 111.219 124.453C116.323 125.651 118.875 128.737 118.875 133.711L118.68 139.844C118.68 148.802 119.448 153.88 120.984 155.078ZM106.883 118.359V109.141C106.883 107.188 105.607 106.211 103.055 106.211V121.328C105.607 121.328 106.883 120.339 106.883 118.359ZM146.766 155H122.703V98.9844H146.609V106.211H135.008V121.328H145.477V128.125H135.008V147.812H146.766V155ZM175.164 155H162.859V98.9844H175.164V155ZM208.992 155H196.336L187.977 125.156V155H177.703V98.9844H191.688L198.719 124.531V98.9844H208.992V155ZM234.734 106.211H223.992V121.328H233.602V128.125H223.992V155H211.688V98.9844H234.734V106.211ZM236.648 145.43V109.375C236.648 102.109 241.362 98.4766 250.789 98.4766C260.086 98.4766 264.734 102.083 264.734 109.297V145.352C264.734 148.607 263.432 151.12 260.828 152.891C258.25 154.635 254.878 155.508 250.711 155.508C241.336 155.508 236.648 152.148 236.648 145.43ZM252.703 146.016V107.852C252.703 106.732 252.039 106.172 250.711 106.172C249.331 106.172 248.641 106.732 248.641 107.852V146.016C248.641 147.135 249.331 147.695 250.711 147.695C252.039 147.695 252.703 147.135 252.703 146.016Z" fill="#411F15"/>
</svg>
