<svg width="85" height="85" viewBox="0 0 85 85" fill="none" xmlns="http://www.w3.org/2000/svg">
<ellipse cx="42.4333" cy="42.5" rx="42.4333" ry="42.5" transform="matrix(0 1 1 0 0 0)" fill="white"/>
<path d="M44.3986 65.8657C44.3986 67.2648 43.2644 68.399 41.8652 68.399C40.4661 68.399 39.3319 67.2648 39.3319 65.8657H41.8652H44.3986ZM40.0739 17.2077C41.0632 16.2184 42.6672 16.2184 43.6566 17.2077L59.7786 33.3297C60.7679 34.3191 60.7679 35.9231 59.7786 36.9124C58.7893 37.9017 57.1853 37.9017 56.1959 36.9124L41.8652 22.5817L27.5345 36.9124C26.5452 37.9017 24.9412 37.9017 23.9519 36.9124C22.9625 35.9231 22.9625 34.3191 23.9519 33.3297L40.0739 17.2077ZM41.8652 65.8657H39.3319V18.999H41.8652H44.3986V65.8657H41.8652Z" fill="#1573FF"/>
</svg>
